<?xml version="1.0" standalone="no"?>
<!DOCTYPE svg PUBLIC "-//W3C//DTD SVG 20010904//EN"
 "http://www.w3.org/TR/2001/REC-SVG-20010904/DTD/svg10.dtd">
<svg version="1.0" xmlns="http://www.w3.org/2000/svg"
 width="591.000000pt" height="591.000000pt" viewBox="0 0 591.000000 591.000000"
 preserveAspectRatio="xMidYMid meet">
<metadata>
Created by potrace 1.14, written by Peter Selinger 2001-2017
</metadata>
<g transform="translate(0.000000,591.000000) scale(0.100000,-0.100000)"
fill="#000000" stroke="none">
<path d="M3848 5275 c-2 -1 -28 -6 -58 -9 -152 -18 -320 -75 -449 -152 -95
-56 -126 -81 -219 -172 l-75 -73 -86 5 c-115 7 -223 32 -672 150 -74 19 -158
37 -185 40 -28 2 -89 13 -135 25 -314 77 -657 28 -917 -131 -330 -202 -512
-547 -471 -893 16 -126 20 -148 41 -193 33 -69 30 -89 -22 -141 -25 -25 -60
-66 -76 -91 -38 -56 -85 -140 -79 -140 3 0 -2 -14 -11 -31 -9 -18 -38 -89 -66
-158 -47 -119 -119 -280 -155 -346 -143 -264 -184 -413 -176 -637 3 -91 10
-132 34 -208 68 -212 196 -422 344 -563 134 -128 235 -207 397 -309 361 -227
904 -413 1411 -483 20 -3 53 -7 72 -10 33 -5 76 -9 175 -20 248 -25 773 -26
970 -1 14 2 57 7 95 11 39 4 77 8 85 10 8 1 42 6 75 9 143 16 510 100 685 156
169 55 381 140 515 208 102 52 258 143 263 155 2 4 8 7 13 7 6 0 45 26 87 57
86 64 88 65 141 113 21 19 56 51 78 70 175 157 329 409 378 616 55 234 35 409
-80 719 -20 55 -50 143 -66 197 -35 119 -73 202 -144 319 -30 50 -55 92 -55
94 0 3 -6 13 -14 22 -8 10 -73 97 -145 193 -72 96 -142 189 -155 205 -14 17
-26 36 -26 43 0 6 -3 12 -8 12 -12 0 -102 182 -108 220 -3 19 -7 73 -9 120 -8
181 -27 266 -92 400 -148 308 -461 524 -833 576 -46 6 -267 14 -272 9z m241
-134 c24 -6 24 -7 -11 -33 -87 -66 -34 -216 108 -309 153 -101 316 -107 374
-15 28 45 7 138 -44 195 l-21 24 30 -18 c179 -110 319 -300 370 -500 23 -91
26 -259 5 -278 -29 -27 -233 -80 -370 -95 -115 -14 -412 -4 -441 14 -4 2 -24
6 -45 9 -106 16 -313 97 -437 172 -165 99 -323 262 -407 419 -16 31 -30 63
-30 71 0 20 96 113 170 165 98 69 236 132 335 155 129 29 348 41 414 24z
m-2244 -155 c74 -12 159 -37 168 -49 13 -19 0 -164 -24 -257 -108 -424 -562
-770 -1069 -816 -36 -3 -77 -7 -92 -9 -53 -6 -64 3 -86 73 -12 37 -26 89 -31
115 -11 59 -7 203 8 275 12 60 60 185 73 190 4 2 8 8 8 14 0 14 96 152 122
174 l21 19 -17 -33 c-17 -33 -19 -109 -4 -118 5 -3 6 -9 4 -13 -8 -13 65 -54
110 -61 92 -14 227 38 319 122 154 141 114 302 -74 300 l-46 -1 49 19 c28 11
52 17 54 15 3 -3 10 -1 16 5 7 5 27 12 46 15 18 3 36 7 39 9 3 2 31 7 61 11
30 4 57 9 59 11 6 5 239 -3 286 -10z m470 -98 c61 -16 121 -33 135 -39 14 -5
34 -11 45 -13 11 -2 52 -12 90 -21 39 -9 81 -19 94 -21 14 -3 28 -7 32 -9 4
-3 24 -7 45 -10 22 -3 44 -8 51 -10 21 -7 127 -18 183 -19 60 -1 53 5 111
-103 53 -100 200 -269 304 -352 80 -63 288 -185 335 -196 8 -2 52 -17 97 -33
201 -73 424 -99 673 -79 125 10 218 29 355 71 43 14 80 24 81 23 1 -1 10 -20
21 -42 51 -103 74 -143 88 -155 8 -7 15 -18 15 -25 0 -8 4 -15 8 -17 4 -1 23
-25 42 -53 19 -27 38 -52 41 -55 24 -21 269 -362 269 -374 0 -2 18 -32 41 -66
22 -34 39 -63 37 -66 -2 -2 -24 15 -49 37 -207 187 -459 344 -749 466 -433
182 -492 198 -700 190 -69 -3 -134 -7 -145 -10 -30 -7 -104 -19 -107 -17 -2 1
-16 -3 -31 -9 -15 -6 -41 -13 -57 -16 -16 -3 -82 -21 -147 -41 -65 -20 -171
-51 -236 -70 -64 -18 -121 -35 -125 -38 -10 -6 -138 -34 -202 -44 -102 -16
-400 -6 -515 17 -27 6 -66 13 -85 15 -19 3 -71 12 -115 20 -192 36 -248 42
-381 40 -143 -2 -208 -10 -329 -40 -161 -41 -315 -103 -450 -182 -102 -59
-133 -78 -170 -106 -23 -17 -54 -40 -70 -51 -15 -11 -45 -35 -65 -52 -21 -18
-41 -34 -46 -34 -11 -2 -172 -173 -229 -243 -22 -28 -50 -60 -62 -73 -13 -13
-23 -26 -23 -29 0 -3 -5 -10 -10 -17 -28 -33 -61 -81 -128 -181 -40 -61 -70
-100 -67 -86 4 14 45 102 91 195 46 94 84 176 84 183 0 6 5 12 12 12 6 0 8 3
5 7 -4 3 -1 13 5 21 7 8 13 21 14 29 1 8 9 29 17 46 9 18 34 79 57 137 74 187
124 281 183 343 30 31 60 57 66 57 6 0 13 0 16 0 3 0 18 6 33 14 15 7 62 17
106 20 140 11 320 54 456 108 65 26 286 149 300 167 3 3 21 18 41 33 19 14 67
57 105 95 223 218 330 459 343 771 1 26 -9 27 166 -20z m1875 -1107 c91 -17
94 -18 130 -39 19 -11 52 -25 73 -32 47 -15 44 -19 -19 -26 -136 -14 -356 -98
-458 -176 -23 -17 -65 -56 -94 -86 -206 -217 -116 -489 195 -588 110 -35 312
-49 428 -30 22 3 56 9 75 12 78 14 250 77 329 121 166 95 294 263 293 386 -1
9 1 17 4 17 8 0 116 -83 164 -125 171 -153 304 -318 349 -433 43 -110 44 -290
1 -449 -91 -337 -415 -670 -876 -901 -113 -57 -299 -139 -334 -147 -8 -2 -53
-18 -99 -35 -68 -24 -298 -91 -361 -105 -196 -42 -264 -55 -305 -60 -27 -4
-61 -8 -75 -10 -355 -54 -831 -65 -1185 -30 -256 26 -501 68 -685 117 -41 11
-100 26 -130 34 -72 18 -284 93 -396 139 -347 143 -681 371 -854 584 -19 23
-43 52 -53 64 -68 80 -96 176 -92 311 2 72 7 91 45 174 24 50 47 92 51 92 5 0
9 5 9 10 0 17 185 293 220 330 9 8 42 48 74 88 32 39 62 72 67 72 5 0 15 -13
24 -30 24 -47 119 -135 200 -185 228 -142 573 -197 815 -129 30 8 60 16 65 17
44 10 150 75 193 118 188 190 79 469 -243 624 -49 24 -117 51 -150 61 -73 22
-70 21 -95 23 -44 3 -15 19 70 40 129 32 159 35 310 35 140 1 221 -6 287 -23
21 -5 56 -12 78 -15 22 -3 51 -8 65 -11 14 -3 43 -8 65 -11 22 -3 65 -9 95
-14 112 -18 143 -21 278 -24 119 -3 206 3 286 18 116 23 260 63 509 141 140
44 315 83 408 91 41 4 75 8 77 9 6 5 123 -4 172 -14z m1490 -1753 c-25 -58
-70 -142 -79 -148 -4 -3 -19 -25 -34 -50 -24 -41 -58 -82 -150 -180 -43 -46
-146 -135 -211 -182 -28 -21 -55 -41 -61 -45 -77 -61 -477 -272 -525 -278 -3
0 -15 -6 -27 -13 -13 -7 -23 -10 -23 -6 0 3 -6 1 -14 -5 -13 -11 -289 -105
-336 -115 -14 -3 -56 -14 -95 -25 -113 -32 -349 -78 -436 -86 -27 -2 -53 -6
-58 -9 -4 -3 -37 -8 -72 -11 -35 -4 -80 -8 -99 -10 -171 -16 -282 -20 -515
-20 -238 1 -423 8 -497 20 -12 2 -45 6 -73 10 -83 10 -248 34 -275 40 -14 3
-47 9 -75 15 -232 44 -554 139 -699 204 -28 12 -78 34 -111 47 -33 13 -82 37
-110 52 -58 33 -55 33 90 -27 112 -46 302 -115 333 -121 9 -1 60 -15 112 -29
116 -33 94 -28 275 -64 167 -34 215 -43 262 -47 18 -1 48 -5 65 -9 18 -3 67
-8 108 -12 41 -3 100 -9 131 -13 155 -20 758 -17 864 4 11 2 55 7 97 10 43 3
83 7 90 10 7 2 37 6 66 9 28 4 67 8 85 11 17 3 46 7 62 9 17 3 84 16 150 30
66 15 129 28 140 31 58 12 259 70 320 91 39 14 90 32 115 40 25 8 54 19 65 24
11 5 49 21 85 36 36 14 79 33 97 40 17 8 35 14 41 14 5 0 15 7 22 14 6 8 28
20 48 27 20 7 39 15 42 18 3 3 34 21 70 40 62 32 288 179 315 204 7 7 27 23
45 37 43 33 195 184 243 240 21 25 63 84 94 133 30 48 57 87 59 87 1 0 -6 -19
-16 -42z"/>
<path d="M3577 2618 c-43 -42 -23 -92 64 -160 73 -57 133 -67 164 -29 37 47
26 92 -33 131 -20 13 -53 37 -72 52 -43 35 -90 37 -123 6z"/>
<path d="M2790 2597 c-35 -11 -70 -25 -76 -31 -6 -6 -27 -22 -46 -36 -34 -23
-71 -70 -67 -87 5 -33 73 -80 109 -77 8 1 20 2 25 3 10 1 42 24 89 65 11 10
40 27 64 38 42 20 46 28 43 82 -2 35 1 32 -42 49 -31 13 -41 13 -99 -6z"/>
<path d="M5112 2256 c-17 -22 -71 -40 -152 -52 -47 -6 -228 -12 -526 -15 -218
-3 -295 -7 -379 -24 -11 -2 -116 -35 -234 -74 -188 -63 -277 -97 -386 -147
-17 -8 -40 -16 -52 -18 -28 -6 -234 34 -418 79 -140 35 -161 38 -310 39 -144
1 -204 -3 -315 -19 -19 -3 -57 -7 -85 -10 -27 -3 -57 -7 -65 -10 -8 -2 -37 -7
-65 -10 -27 -3 -61 -7 -75 -10 -82 -14 -164 -19 -310 -19 -161 0 -169 1 -325
41 -261 68 -456 98 -685 104 -78 2 -106 -6 -120 -31 -14 -27 -2 -68 24 -82 11
-6 50 -13 86 -14 289 -12 479 -43 750 -124 101 -30 405 -32 575 -5 17 3 44 7
60 10 17 2 53 7 80 10 28 3 57 8 65 10 8 3 40 7 71 10 31 3 67 8 80 11 13 3
105 7 204 9 l180 4 180 -44 c99 -24 198 -47 220 -50 22 -4 58 -10 80 -15 22
-5 66 -10 99 -10 58 0 80 7 233 76 55 24 459 161 503 169 61 13 135 16 450 20
400 5 464 10 560 41 52 17 69 29 93 64 33 48 15 97 -40 104 -25 4 -37 -1 -51
-18z"/>
</g>
</svg>
